<?xml version="1.0" encoding="utf-8"?>
<!-- Generator: Adobe Illustrator 21.0.2, SVG Export Plug-In . SVG Version: 6.00 Build 0)  -->
<svg version="1.1" id="Isolation_Mode" xmlns="http://www.w3.org/2000/svg" xmlns:xlink="http://www.w3.org/1999/xlink" x="0px"
	 y="0px" viewBox="0 0 646.6 222.3" style="enable-background:new 0 0 646.6 222.3;" xml:space="preserve">
<style type="text/css">
	.st0{fill:#FFFFFF;}
	.st1{clip-path:url(#SVGID_1_);fill:#FFFFFF;}
	.st2{clip-path:url(#SVGID_1_);}
	.st3{fill:#F09346;}
	.st4{fill:#474747;}
	.st5{opacity:0.1;}
	.st6{fill:#6E4215;}
	.st7{fill:#573411;}
	.st8{fill:#E08941;}
	.st9{opacity:0.2;}
	.st10{clip-path:url(#SVGID_1_);fill:#6E4215;}
	.st11{clip-path:url(#SVGID_1_);fill:#523110;}
	.st12{fill:#994223;}
	.st13{opacity:0.1;clip-path:url(#SVGID_1_);}
	.st14{opacity:0.2;fill:#FFFFFF;}
	.st15{clip-path:url(#SVGID_1_);fill:#F09346;}
</style>
<g>
	<g>
		<path class="st0" d="M208.9,118.5v51.6h-48.4v39.6h-51.6v-39.6H47.1C22.9,170.2,0,156.4,0,129.9c0-11.1,4.6-21.6,11.1-30.4
			L84.3,2.8h76.2v115.7H208.9z M108.9,56.4l-46.7,62.1h46.7V56.4z"/>
		<path class="st0" d="M646.6,118.5v51.6h-48.4v39.6h-51.6v-39.6h-61.8c-24.2,0-47.1-13.7-47.1-40.2c0-11.1,4.6-21.6,11.1-30.4
			L522,2.8h76.2v115.7H646.6z M546.5,56.4l-46.7,62.1h46.7V56.4z"/>
	</g>
	<g>
		<defs>
			<circle id="SVGID_3_" cx="322.4" cy="107.5" r="107.5"/>
		</defs>
		<clipPath id="SVGID_1_">
			<use xlink:href="#SVGID_3_"  style="overflow:visible;"/>
		</clipPath>
		<circle class="st1" cx="322.4" cy="107.5" r="107.5"/>
		<g class="st2">
			<g>
				<path class="st3" d="M253.9,222.3c1.5-13.8,24.1-54.8,43.2-54.8h51.5c19.1,0,40.8,40.9,42.3,54.8H253.9z"/>
				<polygon class="st4" points="324.8,222 384.8,201.9 376.4,171.5 347.5,166.7 322.1,172.7 296.6,166.7 267.7,171.5 259.3,201.9 
					319.3,222 				"/>
				<polygon class="st5" points="324.1,222 370.1,207 369.1,177.4 340.9,166.7 322.1,172.7 303.2,166.7 275,177.4 274,207 320,222 
									"/>
				<polygon class="st4" points="324.1,222 366.8,207 369.1,177.4 340.9,166.7 322.1,172.7 303.2,166.7 275,177.4 277.3,207 
					320,222 				"/>
				<polygon class="st5" points="298.5,161 289.3,167.8 294.3,180.1 290.6,185.8 314.3,219.6 				"/>
				<polygon class="st5" points="346.1,161 355.3,167.8 350.3,180.1 354.1,185.8 330.3,219.6 				"/>
				<polygon class="st0" points="313.9,219.8 330.7,219.8 348.8,168.3 340.9,166.7 322.1,172.7 303.2,166.7 297.6,167.8 				"/>
				<polygon class="st5" points="300,158.8 321.6,162.1 315.7,176.7 295.3,166.9 				"/>
				<polygon class="st5" points="344.9,158.8 323.3,162.1 327.5,176.7 348.7,166.9 				"/>
				<path class="st3" d="M302.7,169.3h39.1c3.1-12.7,2.5-36.4,2.9-46.3H300C300.5,132.9,299.6,156.6,302.7,169.3z"/>
				<rect x="314.7" y="164.2" class="st6" width="14.3" height="7.3"/>
				<polygon class="st7" points="329,171.5 314.7,171.5 318,179.3 325.7,179.3 				"/>
				<polygon class="st6" points="330.7,219.4 313,219.4 318,179.3 325.7,179.3 				"/>
				<path class="st5" d="M344.1,148.9c-4.6,1.1-8.8-1.8-21.8-1.8c-13.1,0-17.2,2.9-21.9,1.7c0.2,4.6,0.5,9.2,1,13.3
					c3.8,1.3,8,2,12.3,2H331c4.3,0,8.3-0.7,12.1-1.9C343.6,158.1,343.9,153.5,344.1,148.9z"/>
				<polygon class="st0" points="300,158.8 320.7,162.1 314.8,174.2 295.3,166.9 				"/>
				<polygon class="st4" points="298.5,161 289.3,167.8 297.7,180.1 293.1,185.8 314.3,219.6 				"/>
				<polygon class="st0" points="344.9,158.8 323.3,162.1 328.4,174.2 348.7,166.9 				"/>
				<polygon class="st4" points="346.1,161 355.3,167.8 346.9,180.1 351.6,185.8 330.3,219.6 				"/>
			</g>
		</g>
		<g class="st2">
			<g>
				<path class="st8" d="M281.5,91.1c-7.5-1.8-17.3,3.5-15.4,11.7c1.9,8.1,11.2,8.3,16.9,4.7L281.5,91.1z"/>
				<path class="st9" d="M276,103.8c4.7,2,8.9-5.7,2.9-6.5C275.5,96.9,271.9,102,276,103.8z"/>
			</g>
			<g>
				<path class="st8" d="M363.2,91.1c7.5-1.8,17.3,3.5,15.4,11.7c-1.9,8.1-11.2,8.3-16.9,4.7L363.2,91.1z"/>
				<path class="st9" d="M368.8,103.8c-4.7,2-8.9-5.7-2.9-6.5C369.3,96.9,372.8,102,368.8,103.8z"/>
			</g>
		</g>
		<path class="st10" d="M278.1,64.4c-28-2.1,4.5,64.7,4.5,64.7l78.1,7.6c0,0,37.3-75.2-0.8-82.6L278.1,64.4z"/>
		<path class="st11" d="M281.4,115.8c-2.3-14.7-9.9-53.1,8.2-51.9c18.1,1.3,69.1-6.1,69.1-6.1s16-4.4,4.2,57.5L281.4,115.8z"/>
		<g class="st2">
			<path class="st3" d="M331,159.7h-17.2c-21,0-37.5-16.3-35.8-35.4l4.8-54.5c1.5-17,17.1-30.2,35.8-30.2h7.6
				c18.7,0,34.3,13.1,35.8,30.2l4.8,54.5C368.4,143.3,351.9,159.7,331,159.7z"/>
		</g>
		<g class="st2">
			<g>
				<g>
					<path class="st12" d="M322.2,150.6c7.6,0,14,1.2,16.2,2.8c-1-6-7.9-10.7-16.2-10.7c-8.4,0-15.3,4.7-16.2,10.7
						C308.2,151.7,314.6,150.6,322.2,150.6z"/>
				</g>
				<path class="st0" d="M336,152.2c-1.6-2.6-7.1-3.2-13.8-3.2c-6.6,0-12.2,0.7-13.8,3.2c3.1-1,8.1-1.6,13.8-1.6
					C327.9,150.6,332.9,151.2,336,152.2z"/>
				<path class="st0" d="M315.1,143.9c2.1,0.4,4.5,0.3,7.1,0.3c2.6,0,5,0.2,7.1-0.3c-2.2-0.8-4.6-1.2-7.1-1.2
					C319.7,142.6,317.3,143.1,315.1,143.9z"/>
			</g>
		</g>
		<path class="st13" d="M348,46.3l-43.1-4.2c-11,4.1-19.2,13.1-21.6,24.1c3.2,0.2,71.3,5.2,48.6-6.9c6.6,2.1,20.3,3.3,28.8,3.9
			C358.5,56.4,354,50.5,348,46.3z"/>
		<path class="st13" d="M336,113.4c0,17.6-6.1,20.4-13.7,20.4c-7.6,0-13.7-2.8-13.7-20.4c0-17.6,6.1-41.7,13.7-41.7
			C329.9,71.7,336,95.8,336,113.4z"/>
		<path class="st10" d="M324,56c45.9,6.2,130.8,0.1,37.8-17.2c57.9-4.2,6.3-16.8-25.6-11.3c35-17.9,4.1-21.1-34,2.1
			c3.8-19.5-15.1-16.8-18.5,20c-9-10.6-22.2-7-7,17.4C302.7,61.8,348.6,70,324,56z"/>
		<g class="st2">
			<g>
				<path class="st5" d="M308.9,91c0.4,3.2-1.3,6.1-3.8,6.4c-2.5,0.3-4.9-2-5.3-5.2c-0.4-3.2,1.3-6.1,3.8-6.4
					C306.1,85.5,308.4,87.8,308.9,91z"/>
				
					<ellipse transform="matrix(0.9915 -0.1302 0.1302 0.9915 -9.2117 40.409)" class="st6" cx="304.4" cy="90.7" rx="2.9" ry="4.9"/>
				
					<ellipse transform="matrix(0.9914 -0.1307 0.1307 0.9914 -8.9292 40.5581)" class="st14" cx="304.6" cy="88.3" rx="1" ry="1.7"/>
			</g>
			<g>
				<path class="st5" d="M335.9,91c-0.4,3.2,1.3,6.1,3.8,6.4c2.5,0.3,4.9-2,5.3-5.2c0.4-3.2-1.3-6.1-3.8-6.4
					C338.7,85.5,336.3,87.8,335.9,91z"/>
				
					<ellipse transform="matrix(0.1302 -0.9915 0.9915 0.1302 206.1111 416.259)" class="st6" cx="340.3" cy="90.7" rx="4.9" ry="2.9"/>
				<path class="st14" d="M340,88.2c-0.1,1,0.2,1.8,0.8,1.9c0.6,0.1,1.1-0.6,1.3-1.6c0.1-1-0.2-1.8-0.8-1.9
					C340.7,86.5,340.1,87.2,340,88.2z"/>
			</g>
		</g>
		<g class="st2">
			<g>
				<path class="st6" d="M309.4,80.7l-11.6,3.9c-2.1,0.7-4.4-0.4-5.2-2.6l0,0c-0.7-2,0.3-4.2,2.3-5l11.3-4.8
					c2.2-0.9,4.7,0.2,5.5,2.5l0.3,1C312.7,77.6,311.6,79.9,309.4,80.7z"/>
			</g>
			<g>
				<path class="st6" d="M335.3,80.7l11.6,3.9c2.1,0.7,4.4-0.4,5.2-2.6l0,0c0.7-2-0.3-4.2-2.3-5l-11.3-4.8c-2.2-0.9-4.7,0.2-5.5,2.5
					l-0.3,1C332,77.6,333.2,79.9,335.3,80.7z"/>
			</g>
		</g>
		<path class="st15" d="M334.3,110.6c0,17.2-5.4,21.6-12,21.6c-6.6,0-12-4.4-12-21.6c0-17.2,5.4-40.8,12-40.8
			C329,69.8,334.3,93.4,334.3,110.6z"/>
		<g class="st2">
			
				<ellipse transform="matrix(6.660607e-02 -0.9978 0.9978 6.660607e-02 205.8476 407.837)" class="st14" cx="320.9" cy="93.9" rx="11.3" ry="3"/>
		</g>
	</g>
</g>
</svg>
