<?xml version="1.0" encoding="utf-8"?>
<!-- Generator: Adobe Illustrator 21.0.2, SVG Export Plug-In . SVG Version: 6.00 Build 0)  -->
<svg version="1.1" id="Layer_1" xmlns="http://www.w3.org/2000/svg" xmlns:xlink="http://www.w3.org/1999/xlink" x="0px" y="0px"
	 viewBox="0 0 200 200" style="enable-background:new 0 0 200 200;" xml:space="preserve">
<style type="text/css">
	.st0{fill:#E9E9E9;}
	.st1{fill:#FFFFFF;}
</style>
<g>
	<rect class="st0" width="200" height="200"/>
</g>
<g>
	<path class="st1" d="M164.1,24H35.9C29.3,24,24,29.3,24,35.9v128.3c0,6.6,5.3,11.9,11.9,11.9h128.3c6.6,0,11.9-5.3,11.9-11.9V35.9
		C176,29.3,170.7,24,164.1,24z M147.3,171.3H52.8c-13.3,0-24-10.7-24-24V52.8c0-13.3,10.7-24,24-24h94.5c13.3,0,24,10.7,24,24v94.5
		C171.3,160.5,160.5,171.3,147.3,171.3z"/>
	<path class="st1" d="M52.5,35.9H40.6c-0.1,0-0.1,0-0.2,0c-2.6,0.1-4.6,2.2-4.6,4.8v9.5h4.8v-9.5h11.9V35.9z"/>
	<path class="st1" d="M144.3,47.8H55.8c-4.4,0-8,3.6-8,8V73c0,4.4,3.6,8,8,8h88.5c4.4,0,8-3.6,8-8V55.8
		C152.3,51.3,148.7,47.8,144.3,47.8z M147.5,76.3h-95V52.5h95V76.3z"/>
	<path class="st1" d="M90.5,122.9V96.1c0-4.4-3.6-8-8-8H55.8c-4.4,0-8,3.6-8,8v26.8c0,4.4,3.6,8,8,8h26.8
		C86.9,130.9,90.5,127.3,90.5,122.9z M52.5,126.1V96.2l29.9,29.9H52.5z M85.8,122.8L55.9,92.9h29.9V122.8z"/>
	<path class="st1" d="M144.3,88.1h-41c-4.4,0-8,3.6-8,8v3c0,4.4,3.6,8,8,8h41c4.4,0,8-3.6,8-8v-3C152.3,91.7,148.7,88.1,144.3,88.1z
		 M147.5,102.4H100v-9.5h47.5V102.4z"/>
	<rect x="95.3" y="114.3" class="st1" width="57" height="4.8"/>
	<rect x="95.3" y="126.1" class="st1" width="57" height="4.8"/>
	<rect x="66.8" y="138" class="st1" width="85.5" height="4.8"/>
	<rect x="47.8" y="149.9" class="st1" width="85.5" height="4.8"/>
	<rect x="47.8" y="138" class="st1" width="4.8" height="4.8"/>
	<rect x="57.3" y="138" class="st1" width="4.8" height="4.8"/>
</g>
</svg>
