<?xml version="1.0" encoding="utf-8"?>
<!-- Generator: Adobe Illustrator 21.0.2, SVG Export Plug-In . SVG Version: 6.00 Build 0)  -->
<svg version="1.1" id="Isolation_Mode" xmlns="http://www.w3.org/2000/svg" xmlns:xlink="http://www.w3.org/1999/xlink" x="0px"
	 y="0px" viewBox="0 0 215 222.3" style="enable-background:new 0 0 215 222.3;" xml:space="preserve">
<style type="text/css">
	.st0{clip-path:url(#SVGID_1_);fill:none;}
	.st1{clip-path:url(#SVGID_1_);}
	.st2{fill:#F09346;}
	.st3{fill:#474747;}
	.st4{opacity:0.1;}
	.st5{fill:#FFFFFF;}
	.st6{fill:#6E4215;}
	.st7{fill:#573411;}
	.st8{fill:#E08941;}
	.st9{opacity:0.2;}
	.st10{clip-path:url(#SVGID_1_);fill:#6E4215;}
	.st11{clip-path:url(#SVGID_1_);fill:#523110;}
	.st12{fill:#994223;}
	.st13{opacity:0.1;clip-path:url(#SVGID_1_);}
	.st14{opacity:0.2;fill:#FFFFFF;}
	.st15{clip-path:url(#SVGID_1_);fill:#F09346;}
</style>
<g>
	<defs>
		<circle id="SVGID_3_" cx="107.5" cy="107.5" r="107.5"/>
	</defs>
	<use xlink:href="#SVGID_3_"  style="overflow:visible;fill:#FFFFFF;"/>
	<clipPath id="SVGID_1_">
		<use xlink:href="#SVGID_3_"  style="overflow:visible;"/>
	</clipPath>
	<circle class="st0" cx="107.5" cy="107.5" r="107.5"/>
	<g class="st1">
		<g>
			<path class="st2" d="M39,222.3c1.5-13.8,24.1-54.8,43.2-54.8h51.5c19.1,0,40.8,40.9,42.3,54.8H39z"/>
			<polygon class="st3" points="109.9,222 170,201.9 161.6,171.5 132.6,166.7 107.2,172.7 81.7,166.7 52.8,171.5 44.4,201.9 
				104.5,222 			"/>
			<polygon class="st4" points="109.2,222 155.3,207 154.2,177.4 126,166.7 107.2,172.7 88.4,166.7 60.1,177.4 59.1,207 105.2,222 
							"/>
			<polygon class="st3" points="109.2,222 151.9,207 154.2,177.4 126,166.7 107.2,172.7 88.4,166.7 60.1,177.4 62.5,207 105.2,222 
							"/>
			<polygon class="st4" points="83.7,161 74.4,167.8 79.5,180.1 75.7,185.8 99.4,219.6 			"/>
			<polygon class="st4" points="131.2,161 140.5,167.8 135.4,180.1 139.2,185.8 115.5,219.6 			"/>
			<polygon class="st5" points="99,219.8 115.8,219.8 133.9,168.3 126,166.7 107.2,172.7 88.4,166.7 82.8,167.8 			"/>
			<polygon class="st4" points="85.1,158.8 106.7,162.1 100.8,176.7 80.5,166.9 			"/>
			<polygon class="st4" points="130,158.8 108.5,162.1 112.7,176.7 133.8,166.9 			"/>
			<path class="st2" d="M87.8,169.3h39.1c3.1-12.7,2.5-36.4,2.9-46.3H85.2C85.6,132.9,84.8,156.6,87.8,169.3z"/>
			<rect x="99.8" y="164.2" class="st6" width="14.3" height="7.3"/>
			<polygon class="st7" points="114.1,171.5 99.8,171.5 103.1,179.3 110.8,179.3 			"/>
			<polygon class="st6" points="115.8,219.4 98.2,219.4 103.1,179.3 110.8,179.3 			"/>
			<path class="st4" d="M129.3,148.9c-4.6,1.1-8.8-1.8-21.8-1.8c-13.1,0-17.2,2.9-21.9,1.7c0.2,4.6,0.5,9.2,1,13.3
				c3.8,1.3,8,2,12.3,2h17.2c4.3,0,8.3-0.7,12.1-1.9C128.7,158.1,129.1,153.5,129.3,148.9z"/>
			<polygon class="st5" points="85.1,158.8 105.9,162.1 100,174.2 80.5,166.9 			"/>
			<polygon class="st3" points="83.7,161 74.4,167.8 82.8,180.1 78.2,185.8 99.4,219.6 			"/>
			<polygon class="st5" points="130,158.8 108.5,162.1 113.5,174.2 133.8,166.9 			"/>
			<polygon class="st3" points="131.2,161 140.5,167.8 132.1,180.1 136.7,185.8 115.5,219.6 			"/>
		</g>
	</g>
	<g class="st1">
		<g>
			<path class="st8" d="M66.6,91.1c-7.5-1.8-17.3,3.5-15.4,11.7c1.9,8.1,11.2,8.3,16.9,4.7L66.6,91.1z"/>
			<path class="st9" d="M61.1,103.8c4.7,2,8.9-5.7,2.9-6.5C60.6,96.9,57,102,61.1,103.8z"/>
		</g>
		<g>
			<path class="st8" d="M148.3,91.1c7.5-1.8,17.3,3.5,15.4,11.7c-1.9,8.1-11.2,8.3-16.9,4.7L148.3,91.1z"/>
			<path class="st9" d="M153.9,103.8c-4.7,2-8.9-5.7-2.9-6.5C154.4,96.9,158,102,153.9,103.8z"/>
		</g>
	</g>
	<path class="st10" d="M63.2,64.4c-28-2.1,4.5,64.7,4.5,64.7l78.1,7.6c0,0,37.3-75.2-0.8-82.6L63.2,64.4z"/>
	<path class="st11" d="M66.6,115.8c-2.3-14.7-9.9-53.1,8.2-51.9c18.1,1.3,69.1-6.1,69.1-6.1s16-4.4,4.2,57.5L66.6,115.8z"/>
	<g class="st1">
		<path class="st2" d="M116.1,159.7H98.9c-21,0-37.5-16.3-35.8-35.4l4.8-54.5c1.5-17,17.1-30.2,35.8-30.2h7.6
			c18.7,0,34.3,13.1,35.8,30.2l4.8,54.5C153.6,143.3,137.1,159.7,116.1,159.7z"/>
	</g>
	<g class="st1">
		<g>
			<g>
				<path class="st12" d="M107.4,150.6c7.6,0,14,1.2,16.2,2.8c-1-6-7.9-10.7-16.2-10.7c-8.4,0-15.3,4.7-16.2,10.7
					C93.3,151.7,99.8,150.6,107.4,150.6z"/>
			</g>
			<path class="st5" d="M121.1,152.2c-1.6-2.6-7.1-3.2-13.8-3.2c-6.6,0-12.2,0.7-13.8,3.2c3.1-1,8.1-1.6,13.8-1.6
				C113,150.6,118,151.2,121.1,152.2z"/>
			<path class="st5" d="M100.2,143.9c2.1,0.4,4.5,0.3,7.1,0.3c2.6,0,5,0.2,7.1-0.3c-2.2-0.8-4.6-1.2-7.1-1.2
				C104.8,142.6,102.4,143.1,100.2,143.9z"/>
		</g>
	</g>
	<path class="st13" d="M133.1,46.3L90,42.1c-11,4.1-19.2,13.1-21.6,24.1c3.2,0.2,71.3,5.2,48.6-6.9c6.6,2.1,20.3,3.3,28.8,3.9
		C143.6,56.4,139.1,50.5,133.1,46.3z"/>
	<path class="st13" d="M121.2,113.4c0,17.6-6.1,20.4-13.7,20.4c-7.6,0-13.7-2.8-13.7-20.4c0-17.6,6.1-41.7,13.7-41.7
		C115.1,71.7,121.2,95.8,121.2,113.4z"/>
	<path class="st10" d="M109.1,56c45.9,6.2,130.8,0.1,37.8-17.2c57.9-4.2,6.3-16.8-25.6-11.3c35-17.9,4.1-21.1-34,2.1
		c3.8-19.5-15.1-16.8-18.5,20c-9-10.6-22.2-7-7,17.4C87.9,61.8,133.8,70,109.1,56z"/>
	<g class="st1">
		<g>
			<path class="st4" d="M94,91c0.4,3.2-1.3,6.1-3.8,6.4c-2.5,0.3-4.9-2-5.3-5.2c-0.4-3.2,1.3-6.1,3.8-6.4C91.2,85.5,93.6,87.8,94,91
				z"/>
			<ellipse transform="matrix(0.9915 -0.1302 0.1302 0.9915 -11.0407 12.433)" class="st6" cx="89.6" cy="90.7" rx="2.9" ry="4.9"/>
			<ellipse transform="matrix(0.9914 -0.1307 0.1307 0.9914 -10.7718 12.4786)" class="st14" cx="89.7" cy="88.3" rx="1" ry="1.7"/>
		</g>
		<g>
			<path class="st4" d="M121,91c-0.4,3.2,1.3,6.1,3.8,6.4c2.5,0.3,4.9-2,5.3-5.2c0.4-3.2-1.3-6.1-3.8-6.4
				C123.8,85.5,121.4,87.8,121,91z"/>
			
				<ellipse transform="matrix(0.1302 -0.9915 0.9915 0.1302 19.2173 203.2161)" class="st6" cx="125.4" cy="90.7" rx="4.9" ry="2.9"/>
			<path class="st14" d="M125.1,88.2c-0.1,1,0.2,1.8,0.8,1.9c0.6,0.1,1.1-0.6,1.3-1.6c0.1-1-0.2-1.8-0.8-1.9
				C125.8,86.5,125.2,87.2,125.1,88.2z"/>
		</g>
	</g>
	<g class="st1">
		<g>
			<path class="st6" d="M94.6,80.7l-11.6,3.9c-2.1,0.7-4.4-0.4-5.2-2.6l0,0c-0.7-2,0.3-4.2,2.3-5l11.3-4.8c2.2-0.9,4.7,0.2,5.5,2.5
				l0.3,1C97.9,77.6,96.7,79.9,94.6,80.7z"/>
		</g>
		<g>
			<path class="st6" d="M120.4,80.7l11.6,3.9c2.1,0.7,4.4-0.4,5.2-2.6l0,0c0.7-2-0.3-4.2-2.3-5l-11.3-4.8c-2.2-0.9-4.7,0.2-5.5,2.5
				l-0.3,1C117.1,77.6,118.3,79.9,120.4,80.7z"/>
		</g>
	</g>
	<path class="st15" d="M119.5,110.6c0,17.2-5.4,21.6-12,21.6c-6.6,0-12-4.4-12-21.6c0-17.2,5.4-40.8,12-40.8
		C114.1,69.8,119.5,93.4,119.5,110.6z"/>
	<g class="st1">
		
			<ellipse transform="matrix(6.660607e-02 -0.9978 0.9978 6.660607e-02 5.2872 193.4419)" class="st14" cx="106" cy="93.9" rx="11.3" ry="3"/>
	</g>
</g>
</svg>
