<?xml version="1.0" encoding="utf-8"?>
<!-- Generator: Adobe Illustrator 21.0.2, SVG Export Plug-In . SVG Version: 6.00 Build 0)  -->
<svg version="1.1" id="Layer_1" xmlns="http://www.w3.org/2000/svg" xmlns:xlink="http://www.w3.org/1999/xlink" x="0px" y="0px"
	 viewBox="0 0 15 15" style="enable-background:new 0 0 15 15;" xml:space="preserve">
<style type="text/css">
	.st0{fill:#ED6123;}
</style>
<path class="st0" d="M12.6,5.3c-1-2.2-2.7-3.3-5.1-3.4c-2.4,0-4.1,1.2-5.1,3.3C1.4,7.6,2,10.3,4,11.9c0.3,0.2,0.6,0.2,0.8,0
	c0.1-0.2,0.1-0.4-0.1-0.7C4.4,11,4.2,10.8,4,10.6C3,9.2,2.6,7.7,3.3,6c0.7-1.6,2-2.6,3.8-2.8c3.2-0.3,5.6,2.6,4.6,5.7
	c-0.3,0.9-0.7,1.6-1.4,2.3c0.2-0.6,0.2-1.1,0.2-1.6c-0.1-1.1-0.9-1.9-2.1-1.9c-0.5,0-1,0.2-1.5,0.5c0-0.1,0-0.2,0-0.3
	c0-0.6,0-1.1,0-1.7c0-0.6-0.4-1-1-1.1C5.4,5.1,4.9,5.5,4.7,6C4.6,6.2,4.6,6.3,4.7,6.5c0.2,0.1,0.3,0.1,0.5,0
	c0.1-0.1,0.1-0.2,0.3-0.2c0.1,0.1,0.1,0.2,0.1,0.3c0.1,1.5,0.1,2.9,0,4.4c0,1,0.5,1.7,1.5,1.9c1.1,0.3,2,0.1,3-0.5
	C12.8,10.9,13.7,7.9,12.6,5.3z M8.9,11.3c-0.3,0.6-1.3,0.7-1.8,0.3c-0.3-0.2-0.3-0.5-0.3-0.8C6.9,10,7.3,9.3,8,9.1
	c0.7-0.2,1.1,0.1,1.2,0.8C9.2,10.4,9.2,10.9,8.9,11.3z"/>
</svg>
