<?xml version="1.0" encoding="utf-8"?>
<!-- Generator: Adobe Illustrator 21.0.2, SVG Export Plug-In . SVG Version: 6.00 Build 0)  -->
<svg version="1.1" id="Layer_1" xmlns="http://www.w3.org/2000/svg" xmlns:xlink="http://www.w3.org/1999/xlink" x="0px" y="0px"
	 viewBox="0 0 15 15" style="enable-background:new 0 0 15 15;" xml:space="preserve">
<style type="text/css">
	.st0{enable-background:new    ;}
	.st1{fill:#1DA1F2;}
</style>
<g class="st0">
	<path class="st1" d="M12.8,4.4c-0.3,0.4-0.7,0.8-1.1,1.1c0,0.1,0,0.2,0,0.3c0,0.6-0.1,1.2-0.3,1.7c-0.2,0.6-0.4,1.1-0.8,1.7
		c-0.3,0.5-0.8,1-1.2,1.4c-0.5,0.4-1.1,0.7-1.7,1c-0.7,0.2-1.4,0.4-2.2,0.4c-1.2,0-2.3-0.3-3.3-1c0.2,0,0.3,0,0.5,0
		c1,0,1.9-0.3,2.7-0.9C5,10,4.5,9.9,4.2,9.6C3.8,9.3,3.5,9,3.4,8.6c0.1,0,0.3,0,0.4,0c0.2,0,0.4,0,0.6-0.1C3.9,8.4,3.5,8.2,3.1,7.8
		C2.8,7.4,2.7,6.9,2.7,6.4v0c0.3,0.2,0.6,0.3,1,0.3C3.3,6.4,3.1,6.2,2.9,5.9c-0.2-0.3-0.3-0.7-0.3-1c0-0.4,0.1-0.8,0.3-1.1
		c0.5,0.7,1.2,1.2,2,1.6C5.7,5.7,6.5,6,7.4,6c0-0.2-0.1-0.3-0.1-0.5C7.4,4.9,7.6,4.4,8,4s0.9-0.6,1.5-0.6c0.6,0,1.2,0.2,1.6,0.7
		c0.5-0.1,0.9-0.3,1.4-0.5c-0.2,0.5-0.5,0.9-1,1.2C11.9,4.7,12.4,4.5,12.8,4.4z"/>
</g>
</svg>
