<?xml version="1.0" encoding="utf-8"?>
<!-- Generator: Adobe Illustrator 21.0.2, SVG Export Plug-In . SVG Version: 6.00 Build 0)  -->
<svg version="1.1" id="Layer_1" xmlns="http://www.w3.org/2000/svg" xmlns:xlink="http://www.w3.org/1999/xlink" x="0px" y="0px"
	 viewBox="0 0 15 15" style="enable-background:new 0 0 15 15;" xml:space="preserve">
<style type="text/css">
	.st0{enable-background:new    ;}
	.st1{fill:#007BB6;}
</style>
<g class="st0">
	<path class="st1" d="M4.8,3.8c0,0.3-0.1,0.6-0.3,0.8C4.3,4.8,4,4.9,3.6,4.9h0c-0.4,0-0.7-0.1-0.9-0.3C2.5,4.4,2.4,4.1,2.4,3.8
		c0-0.3,0.1-0.6,0.3-0.8s0.5-0.3,0.9-0.3S4.3,2.7,4.5,3S4.8,3.4,4.8,3.8z M4.7,5.8v6.6H2.5V5.8H4.7z M12.6,8.7v3.8h-2.2V8.9
		c0-0.5-0.1-0.8-0.3-1.1S9.7,7.4,9.3,7.4C9,7.4,8.8,7.5,8.6,7.6S8.3,8,8.2,8.2c0,0.1-0.1,0.3-0.1,0.5v3.7H5.9c0-1.8,0-3.2,0-4.3
		s0-1.8,0-2l0-0.3h2.2v1h0c0.1-0.1,0.2-0.3,0.3-0.4c0.1-0.1,0.2-0.2,0.4-0.3s0.4-0.2,0.6-0.3c0.2-0.1,0.5-0.1,0.8-0.1
		c0.8,0,1.4,0.3,1.8,0.8C12.4,6.9,12.6,7.7,12.6,8.7z"/>
</g>
</svg>
