<?xml version="1.0" encoding="utf-8"?>
<!-- Generator: Adobe Illustrator 21.0.2, SVG Export Plug-In . SVG Version: 6.00 Build 0)  -->
<svg version="1.1" id="Layer_1" xmlns="http://www.w3.org/2000/svg" xmlns:xlink="http://www.w3.org/1999/xlink" x="0px" y="0px"
	 viewBox="0 0 15 15" style="enable-background:new 0 0 15 15;" xml:space="preserve">
<style type="text/css">
	.st0{fill:#684C46;}
	.st1{fill:#785F5A;}
	.st2{fill:#F4DBB9;}
	.st3{fill:#122030;}
	.st4{fill:#E9BD8C;}
	.st5{fill:#46B7E2;}
	.st6{fill:#0787BE;}
	.st7{fill:#FEFEFE;}
	.st8{fill:#9B7256;}
	.st9{fill:#E9BD8D;}
	.st10{fill:#FED04F;}
	.st11{fill:#E9BE8D;}
	.st12{fill:#162331;}
	.st13{fill:#9C7356;}
	.st14{fill:#122130;}
	.st15{fill:#192531;}
	.st16{fill:#182533;}
</style>
<g>
	<path class="st0" d="M8.6,13.3c-1.3,0-2.4-0.5-3.3-1.4c-0.3-0.3-0.6-0.7-0.8-1c0,0-0.1-0.1-0.1-0.1c-1,0-1.8-1-1.5-2
		c0-0.1,0-0.2-0.1-0.2C2.6,8.4,2.5,8.3,2.4,8.3C2.1,8.1,2,7.8,2,7.4C2,7,2.1,6.6,2.3,6.2c0.4-0.9,1-1.7,1.6-2.5
		C4.4,3.1,5,2.5,5.8,2.1c0.3-0.2,0.7-0.3,1-0.3c0.3,0,0.5,0.1,0.7,0.2c0.1,0.1,0.2,0.2,0.3,0.2c0.1,0.1,0.1,0.1,0.2,0
		c0.4-0.2,0.8-0.4,1.3-0.5c0.3-0.1,0.6-0.1,0.9,0C10.7,2,10.9,2.4,10.9,3c0,0.5-0.3,1-0.5,1.5c0,0.1,0,0.1,0,0.2
		c0.2,0.2,0.3,0.5,0.5,0.7C11,5.5,11,5.8,11,6c0,0.2,0,0.5,0.1,0.7c0,0.1,0,0.1,0.1,0.2c0.3,0.1,0.6,0.3,0.8,0.5c0,0,0.1,0,0.1,0
		c0.4,0.2,0.6,0.6,0.3,0.9c0,0,0,0.1,0,0.1c0,0,0,0,0,0c0.1,0.2,0.1,0.4,0.3,0.5C13,9.1,13.1,9.4,13,9.6c-0.3,1-0.8,1.9-1.6,2.6
		c-0.7,0.6-1.4,0.9-2.3,1C9,13.2,8.8,13.3,8.6,13.3z"/>
	<path class="st1" d="M11.6,12.4c0,0,0.1,0,0.1,0c0,0,0,0,0,0c0,0,0,0,0.1,0c0,0,0,0,0,0.1c0,0.1,0,0.1-0.1,0.1
		C11.6,12.5,11.6,12.5,11.6,12.4C11.6,12.5,11.6,12.4,11.6,12.4c0,0.1,0,0.1,0,0.1c0,0,0,0.1,0,0.1c0,0,0,0,0-0.1
		C11.5,12.5,11.5,12.5,11.6,12.4C11.4,12.4,11.5,12.4,11.6,12.4C11.5,12.4,11.6,12.4,11.6,12.4z"/>
	<path class="st2" d="M10.9,7.2c0.3,0.1,0.6,0.3,0.8,0.5c0.1,0.1,0.1,0.1,0.2,0.2c0,0.2-0.1,0.4-0.3,0.5c-0.3,0.3-0.6,0.5-1,0.7
		c-0.5,0.2-1,0.4-1.6,0.4c-0.1,0-0.2,0-0.4,0.1C8.6,9.5,8.4,9.6,8.4,9.8c0,0.1,0,0.1,0,0.2c0,0.6,0.4,0.8,0.9,0.9
		c1,0.1,1.8-0.3,2.6-0.9c0.2-0.1,0.3-0.3,0.4-0.5c0,0-0.1,0-0.1,0.1c-0.1-0.1-0.1-0.2,0-0.3c0.1,0,0.1,0,0.2,0
		c0.2,0,0.3,0.1,0.2,0.3c0,0.1-0.1,0.1-0.1,0.2c-0.1,0.2-0.3,0.4-0.5,0.5c-0.5,0.4-1,0.7-1.6,0.9c-0.1,0-0.1,0.1,0,0.1
		c0.1,0.1,0.2,0.2,0.4,0.3c0,0,0.1,0,0.1,0.1c-0.7,0.3-1.4,0.4-2.1,0.3c-0.5-0.1-0.8-0.4-1-0.8c0,0,0-0.1,0-0.1c0,0,0,0,0,0
		c0,0.1,0,0.2,0,0.3c-0.2-0.3-0.2-0.5-0.2-0.8c-0.1,0.1-0.1,0.2-0.2,0.3c-0.1-0.3-0.1-0.5-0.1-0.8c0,0.1-0.1,0.1-0.1,0.2
		C7.1,9.5,7.2,9,7.6,8.6c0,0,0.1-0.1,0.1-0.1c0.2-0.2,0.5-0.3,0.7-0.4c0.3,0,0.5-0.2,0.7-0.3c0.1,0,0.1-0.1,0.1-0.1
		c0-0.4,0.4-0.7,0.8-0.7c0.1,0,0.2,0,0.3,0c0.1,0,0.2,0.1,0.2,0.2c0,0,0.1,0,0.1,0C10.8,7.2,10.8,7.1,10.9,7.2z"/>
	<path class="st3" d="M5.8,5.9C5.5,6.4,5.1,7,4.9,7.6c0,0.1-0.1,0.1-0.2,0.1C4.3,7.5,3.9,7.5,3.6,7.7c0,0,0-0.1,0-0.1
		c0.2-0.7,0.6-1.3,1-1.9c0.4-0.5,0.8-1,1.3-1.5C6.1,4,6.4,3.7,6.7,3.5c0,0,0.1,0,0.1,0c0,0.1,0,0.1-0.1,0.1C6.5,3.8,6.4,4,6.2,4.1
		C5.7,4.7,5.3,5.2,4.9,5.8c0,0-0.1,0.1-0.1,0.1C5,5.7,5.2,5.5,5.4,5.3C5.7,4.9,6.1,4.4,6.5,4C6.7,3.8,7,3.6,7.3,3.3
		c0.3-0.2,0.6-0.5,0.9-0.7c0.3-0.2,0.7-0.4,1-0.5c0,0,0.1,0,0.1,0c0.2-0.1,0.5-0.1,0.7,0c0.4,0.1,0.5,0.5,0.5,0.8
		c0,0.5-0.2,0.9-0.5,1.3c0,0,0,0.1-0.1,0C9.8,4.1,9.8,4,9.6,3.9c0,0-0.1,0-0.1-0.1c0,0,0,0,0,0c0,0.1-0.1,0-0.2,0
		C9.2,3.8,9.1,3.8,8.9,3.7c0,0,0,0,0,0c0,0,0.1,0.1,0,0.1c0,0-0.1,0-0.1,0C8.7,3.8,8.6,3.8,8.4,3.8c0,0,0,0,0,0c0,0,0.1,0,0.1,0.1
		c0,0.1-0.1,0-0.1,0c-0.3,0-0.6,0-0.8,0.1c0.1,0,0.1,0,0.2,0c0,0,0.1,0,0.1,0.1c0,0,0,0-0.1,0.1c-0.1,0-0.3,0.1-0.4,0.1
		c-0.1,0-0.2,0.1-0.2,0.1c0,0,0.1,0,0.1,0c0,0,0.1,0,0.1,0c0,0,0,0.1,0,0.1C7.2,4.6,7.1,4.7,7,4.7C6.6,5,6.2,5.4,5.9,5.8
		C5.9,5.8,5.9,5.9,5.8,5.9z"/>
	<path class="st4" d="M10,6.9C9.6,7,9.3,7.3,9.3,7.7c0,0.1,0,0.1-0.1,0.1C9.1,7.9,9,8,8.8,8c-0.1,0-0.2,0.1-0.3,0.1
		C8.3,8.2,8,8.3,7.8,8.5c0,0,0,0-0.1,0C7.6,8.4,7.4,8.3,7.3,8.2c0,0,0.1,0,0.1,0C7.1,7.9,6.9,7.7,6.9,7.3c0.1,0,0.1,0.1,0.2,0.1
		C7,7.3,7,7.1,7,7c0-0.6,0.6-0.9,1.2-0.9c0.3,0.1,0.7,0.1,1,0C9.5,6,9.8,5.8,10,5.5c0.1-0.1,0.2-0.2,0.4-0.2
		c0.1,0.1,0.2,0.3,0.2,0.5c0.1,0.3,0.1,0.7,0.1,1c0,0.1,0,0.2,0.1,0.3c-0.1,0-0.1,0-0.2,0.1c0,0-0.1,0-0.1,0C10.6,7.1,10.5,7,10.4,7
		c0-0.2,0-0.3-0.1-0.5c0,0-0.1-0.1-0.1-0.1C10,6.4,10,6.5,10,6.6c0,0.1,0,0.2,0,0.3C10,6.9,10.1,6.9,10,6.9z"/>
	<path class="st5" d="M3.2,5.2C3.5,4.8,3.7,4.5,4,4.1C4.6,3.5,5.1,3,5.8,2.6c0.3-0.2,0.6-0.3,0.9-0.4c0.1,0,0.2,0,0.3,0
		c0,0,0.1,0,0.1,0c0,0.1,0,0.2,0,0.4c0,0-0.1,0-0.1,0c-0.1,0-0.2,0-0.2-0.1c-0.2-0.1-0.3,0-0.4,0.1c0,0.1,0,0.2,0,0.3
		c0,0.2,0,0.4,0.1,0.5c0,0.1,0,0.1-0.1,0.2c-0.4,0.3-0.7,0.6-1,0.9C4.9,4.9,4.5,5.4,4.2,5.8C4.1,5.9,4.1,5.9,4,5.9
		C3.8,5.7,3.5,5.5,3.2,5.2C3.3,5.3,3.2,5.3,3.2,5.2z"/>
	<path class="st6" d="M3.2,5.2c0.1,0.1,0.2,0.2,0.3,0.3c0.2,0.1,0.4,0.3,0.5,0.4c0,0,0.1,0,0.1,0c0.2-0.4,0.5-0.7,0.8-1
		C5.2,4.6,5.5,4.3,5.7,4c0.2-0.2,0.4-0.3,0.6-0.4c0.1,0,0.1-0.1,0-0.1c0-0.2-0.1-0.3-0.1-0.5c0,0,0,0,0.1,0c0.2,0.2,0.3,0.3,0.5,0.4
		c0,0,0,0,0,0.1c0,0.1,0,0.1-0.1,0.1C6.6,3.6,6.4,3.8,6.2,3.9c-1.1,0.9-2,2-2.5,3.4c0,0.1-0.1,0.3-0.1,0.4C3.4,7.8,3.2,8,3.1,8.2
		c0,0-0.1,0.1-0.1,0C2.8,8.1,2.7,8,2.5,7.8C2.5,7.7,2.4,7.6,2.4,7.5c0-0.3,0.1-0.6,0.2-1C2.8,6,3,5.6,3.2,5.2z"/>
	<path class="st7" d="M12.2,9.3c0,0.1,0,0.2,0,0.3c-0.3,0.3-0.7,0.5-1.1,0.7c-0.5,0.3-1.1,0.4-1.7,0.4c-0.2,0-0.3,0-0.5-0.1
		c-0.1-0.1-0.3-0.1-0.3-0.3c0,0,0.1,0,0.1,0c0.7,0.1,1.3,0,2-0.3c0.1,0,0.1-0.1,0.2-0.1c-0.5,0.2-0.9,0.3-1.4,0.3
		c-0.3,0-0.5,0-0.8,0c-0.1,0-0.1,0-0.1-0.1c0-0.2,0.1-0.3,0.3-0.3c1,0,2-0.3,2.8-0.9c0.1-0.1,0.2-0.1,0.3-0.2
		C12.1,8.8,12.2,9,12.2,9.3z"/>
	<path class="st2" d="M5.1,8.7c0-0.1,0.1-0.2,0.1-0.3c0.1,0.3,0.1,0.5,0.1,0.7C5.4,9.1,5.4,9,5.4,9c0.1,0.4-0.1,1-0.7,1.3
		c-0.7,0.3-1.4-0.1-1.6-0.8C3,8.8,3.4,8.1,4,8c0.2,0,0.3,0,0.5,0C4.9,8,5,8.2,5,8.5C5.1,8.6,5.1,8.6,5.1,8.7z"/>
	<path class="st2" d="M10.4,5.4c-0.1,0-0.2,0-0.2,0.1C10,5.5,10,5.6,9.9,5.7C9.6,6,9.3,6.1,9,6.2c-0.3,0.1-0.6,0-0.8,0
		c-0.5,0-1,0.2-1.1,0.8c0,0,0,0,0,0c0-0.6,0.3-1.1,0.9-1.2c0.2-0.1,0.5,0,0.7,0c0.4,0,0.7-0.1,1-0.4c0.1-0.1,0.3-0.2,0.5-0.2
		C10.2,5.2,10.3,5.3,10.4,5.4z"/>
	<path class="st8" d="M5.8,5.9c0.4-0.6,0.9-1,1.5-1.4c-0.1,0-0.1,0-0.1,0c0,0-0.1,0-0.2,0c0.2-0.2,0.5-0.3,0.8-0.3
		C7.7,4.1,7.6,4.1,7.5,4.1C7.5,4,7.8,4,8,3.9c0.2,0,0.3,0,0.5,0C8.4,3.9,8.3,3.9,8.3,3.8c0.1,0,0.3,0,0.4,0c0.1,0,0.2,0,0.4,0.1
		c0-0.1-0.1-0.1-0.1-0.2c0.2,0,0.4,0.1,0.6,0.2c0-0.1,0-0.1-0.1-0.1C9.6,3.9,9.8,4,9.9,4.2c-0.1,0-0.2-0.1-0.3-0.1
		c-0.3-0.1-0.7,0-1,0c-0.8,0.2-1.5,0.5-2.1,1C6.3,5.4,6.1,5.6,5.8,5.9C5.9,5.9,5.9,5.9,5.8,5.9z"/>
	<path class="st9" d="M8.4,10c0-0.4,0.1-0.5,0.3-0.6c0.1,0,0.2-0.1,0.3-0.1c0.7-0.1,1.4-0.3,2-0.6c0.3-0.2,0.5-0.3,0.7-0.6
		c0.1-0.1,0.1-0.2,0.1-0.3c0.1,0,0.1,0,0.2,0c0.1,0.1,0.2,0.2,0.1,0.3c-0.5,0.6-1.2,1-2,1.2C9.8,9.5,9.4,9.5,9.1,9.5
		C8.6,9.6,8.6,9.6,8.4,10z"/>
	<path class="st4" d="M10.9,11.7c-0.2-0.1-0.4-0.2-0.5-0.4c0-0.1-0.1-0.1,0-0.1c0.6-0.2,1.1-0.5,1.5-0.9c0.2-0.2,0.4-0.4,0.6-0.6
		c-0.1,0.4-0.2,0.7-0.5,1C11.7,11.2,11.4,11.5,10.9,11.7z"/>
	<path class="st7" d="M6.8,3.5C6.8,3.5,6.8,3.5,6.8,3.5C6.9,3.4,7,3.3,7,3.3c0.1,0,0.1-0.1,0.2-0.2C7.3,3.1,7.4,3,7.4,3
		c0,0,0.1,0,0.1-0.1c0.1,0,0.1-0.1,0.2-0.1c0.1,0,0.1-0.1,0.2-0.1c0.3-0.2,0.6-0.3,0.9-0.4c0.1,0,0.3-0.1,0.4-0.1c0,0,0.1,0,0.1,0
		C9,2.2,8.7,2.4,8.4,2.6C7.6,3.1,6.8,3.6,6.2,4.3c-0.5,0.5-0.9,1-1.3,1.6c0,0-0.1,0.1-0.1,0.1C4.9,5.7,5.8,4.4,6.8,3.5z"/>
	<path class="st10" d="M7.9,2.7c-0.1,0-0.1,0.1-0.2,0.1c-0.1,0-0.1-0.1-0.2-0.1c0,0.1,0.1,0.1,0,0.2c0,0-0.1,0.1-0.1,0.1
		c-0.1,0-0.1,0-0.2,0c-0.1,0-0.1,0-0.2-0.1C7.1,3,7.2,3,7.3,3.1C7.2,3.2,7.1,3.2,7.1,3.3c-0.1,0-0.2-0.1-0.2-0.2
		C6.6,3,6.5,2.8,6.3,2.7c0,0-0.1-0.1-0.1-0.1c0.1-0.1,0.3-0.2,0.5-0.1c0.1,0,0.2,0.1,0.3,0.1c0,0,0.1,0,0.1,0c0-0.1-0.1-0.2-0.1-0.4
		c0.1-0.1,0.2-0.1,0.3,0C7.6,2.4,7.7,2.5,7.9,2.7z"/>
	<path class="st11" d="M8.7,10.1c0.3,0.1,0.6,0.1,0.9,0.1c0.5,0,0.9-0.2,1.4-0.3c0,0,0,0,0.1,0c-0.1,0.1-0.1,0.1-0.2,0.1
		c-0.6,0.3-1.2,0.4-1.9,0.4c-0.1,0-0.2,0-0.2,0C8.6,10.2,8.7,10.1,8.7,10.1z"/>
	<path class="st12" d="M7.1,2.3c0.1,0.1,0.1,0.3,0.1,0.4c-0.1,0-0.1,0-0.2-0.1C7,2.5,7,2.4,7.1,2.3C7,2.3,7,2.3,7.1,2.3z"/>
	<path class="st0" d="M10,6.9c0-0.1-0.1-0.3,0-0.4c0-0.1,0-0.1,0.1-0.2c0.1,0,0.1,0,0.2,0.1c0.1,0.1,0.1,0.3,0.2,0.5
		c0,0,0,0.1,0,0.1C10.3,6.9,10.2,6.9,10,6.9z"/>
	<path class="st9" d="M9.8,7.5c0.1-0.2,0.3-0.3,0.5-0.2c0,0,0.1,0,0.1,0c-0.1,0-0.1,0.2-0.2,0.3c-0.1,0-0.2,0-0.2,0.2
		C10,7.6,9.9,7.5,9.8,7.5z"/>
	<path class="st13" d="M9.8,7.5C10,7.5,10,7.6,10,7.7c0,0.1-0.1,0.1-0.2,0.1c-0.1,0-0.1-0.1-0.1-0.2C9.7,7.5,9.7,7.5,9.8,7.5z"/>
	<path class="st13" d="M10.3,7.5C10.3,7.5,10.3,7.5,10.3,7.5c0-0.2,0-0.3,0.2-0.3c0.1,0,0.1,0.1,0.1,0.2c0,0.1,0,0.1-0.1,0.1
		C10.4,7.6,10.3,7.6,10.3,7.5z"/>
	<path class="st13" d="M8.4,7.1c0.2,0,0.4,0.1,0.5,0.2c0,0,0.1,0.1,0,0.1c0,0-0.1,0-0.1,0c-0.1,0-0.2-0.1-0.3-0.1
		c-0.2,0-0.4,0-0.6,0.1c0,0-0.1,0.1-0.2,0c0-0.1,0-0.1,0.1-0.1C8,7.2,8.2,7.1,8.4,7.1z"/>
	<path class="st13" d="M8.8,7.7c-0.2,0-0.3,0-0.4,0.1c0,0-0.1,0-0.1,0c0,0,0-0.1,0-0.1c0.1-0.2,0.4-0.2,0.6-0.1c0,0,0.1,0,0.1,0.1
		C8.9,7.7,8.9,7.7,8.8,7.7C8.8,7.7,8.8,7.7,8.8,7.7z"/>
	<path class="st14" d="M6.2,2.6c0.3,0.2,0.6,0.5,0.8,0.7C7,3.3,6.9,3.4,6.9,3.4C6.7,3.3,6.5,3.1,6.3,2.9C6.2,2.8,6.2,2.7,6.2,2.6z"
		/>
	<path class="st4" d="M4.7,8.8C4.7,8.8,4.7,8.8,4.7,8.8c-0.2,0-0.2,0-0.2,0c0,0.1,0,0.1,0,0.2c0.1,0.1,0.1,0.1,0.2,0.2
		c0.1,0.1,0.2,0.3,0.1,0.4c0,0,0,0.1-0.1,0.1c-0.1,0-0.2,0-0.3-0.1C4.1,9.5,3.9,9.3,3.9,9c0-0.1,0-0.1,0-0.2c0,0,0-0.1,0-0.1
		c0.2-0.2,0.5-0.2,0.7,0C4.7,8.7,4.8,8.7,4.7,8.8z"/>
	<path class="st13" d="M4.7,8.8c0-0.1-0.2-0.2-0.4-0.3c-0.2,0-0.4,0-0.5,0.2C3.7,9,3.7,9.2,3.8,9.4c0,0,0.1,0.1,0,0.1
		c0,0-0.1,0-0.1,0C3.6,9.4,3.6,9.3,3.6,9.2c-0.1-0.3,0-0.6,0.3-0.7c0.2-0.2,0.5-0.2,0.8-0.1c0.1,0.1,0.3,0.2,0.3,0.4
		C4.9,8.8,4.9,8.9,4.7,8.8C4.7,8.9,4.8,8.8,4.7,8.8z"/>
	<path class="st13" d="M4.7,9.7c0.2-0.2,0.1-0.3,0-0.5C4.5,9.2,4.4,9.1,4.4,8.9c0-0.1,0-0.1,0.1-0.1c0,0,0.1,0,0.1,0
		C4.5,8.9,4.5,9,4.6,9c0,0,0.1,0,0.1,0.1C5,9.2,5,9.4,5,9.6C4.9,9.8,4.7,9.9,4.5,9.9c0,0-0.1,0-0.1,0c0,0-0.1,0-0.1-0.1
		c0,0,0.1,0,0.1,0C4.5,9.8,4.6,9.8,4.7,9.7z"/>
	<path class="st15" d="M7.3,3.1C7.2,3,7.1,2.9,6.9,2.9c0,0,0,0,0,0c0.2,0,0.3,0.1,0.5,0.1C7.4,3,7.3,3.1,7.3,3.1z"/>
	<path class="st16" d="M7.5,2.9c0-0.1-0.1-0.2-0.1-0.3c0.1,0.1,0.2,0.2,0.3,0.2C7.7,2.8,7.6,2.9,7.5,2.9z"/>
</g>
</svg>
